<?xml version="1.0" encoding="iso-8859-1"?>
<!-- Generator: Adobe Illustrator 16.0.4, SVG Export Plug-In . SVG Version: 6.00 Build 0)  -->
<!DOCTYPE svg PUBLIC "-//W3C//DTD SVG 1.1//EN" "http://www.w3.org/Graphics/SVG/1.1/DTD/svg11.dtd">
<svg version="1.1" id="Layer_1" xmlns="http://www.w3.org/2000/svg" xmlns:xlink="http://www.w3.org/1999/xlink" x="0px" y="0px"
	 width="80px" height="80px" viewBox="0 0 80 80" style="enable-background:new 0 0 80 80;" xml:space="preserve">
<g>
	<path style="fill:#FFFFFF;" d="M77.49,24.898c-3.894-1.584-9.219-4.041-11.485-5.176c-2.955-1.473-4.971-9.266-17.326-9.531
		c-12.356-0.271-28.741-1.885-31.159,3.49c-2.416,5.369-5.104,5.24-6.447,6.041c0,0-4.189,2.305-8.49,4.346v53.479h74.903
		L77.49,24.898z"/>
	<path style="fill:none;stroke:#000000;stroke-width:0.624;stroke-miterlimit:10;" d="M77.49,24.898
		c-3.894-1.584-9.219-4.041-11.485-5.176c-2.955-1.473-4.971-9.266-17.326-9.531c-12.356-0.271-28.741-1.885-31.159,3.49
		c-2.416,5.369-5.104,5.24-6.447,6.041c0,0-4.236,2.332-8.562,4.381"/>
	<path style="fill:#FFFFFF;" d="M23.044,22.095c0,0-12.466-14.516,1.029-15.371c13.49-0.855,35.865-3.928,34.84,4.102
		c-1.024,8.021-10.759,10.59-13.489,18.787c-2.736,8.197-7.86,9.902-9.909,4.436C33.465,28.587,32.954,21.921,23.044,22.095z"/>
	<path style="fill:#808080;stroke:#000000;stroke-width:0.624;stroke-miterlimit:10;" d="M27.977,22.134
		c0,0,2.842,1.824,2.639,4.057c-0.203,2.227,0.405,5.678,1.822,7.094c1.421,1.422,6.086,10.146,6.49,13.795
		c0.407,3.65,1.129-10.709,1.129-10.709s-1.814-2.928-2.829-4.348c-1.011-1.416-2.03-2.635-2.635-4.461
		c-0.609-1.828-0.812-3.447-3.248-3.854C28.914,23.302,27.977,22.134,27.977,22.134z"/>
	<path style="fill:#808080;stroke:#000000;stroke-width:0.624;stroke-miterlimit:10;" d="M47.401,23.556
		c0,0-2.843,1.217-3.451,3.045c-0.609,1.826-2.229,6.492-3.649,8.518c-1.421,2.027-3.04,6.285-2.842,8.717
		c0.202,2.441,0,22.797,0,22.797h6.389c0,0-0.609-25.018,0.405-27.455c1.016-2.432,2.345-7.125,2.143-9.658
		c-0.306-3.822,3.553-6.896,3.553-6.896L47.401,23.556z"/>
	<path style="fill:#FFFFFF;stroke:#000000;stroke-width:0.624;stroke-linejoin:round;stroke-miterlimit:10;" d="M45.718,24.517
		c0,0,5.955-3.209,7.878-6.961c1.93-3.754,7.517-9.941-2.126-9.941c-4.461,0-6.897,0.609-11.663,0.609
		c-4.462,0-13.485-0.102-16.125-0.197c-2.634-0.107-7.704,2.227,2.233,12.469c0.947,0.982,2.127,1.721,2.127,1.721
		s-2.229-2.229-4.259,0c-2.025,2.238-5.273,8.826-7.299,8.217c0,0-5.684-8.922-5.887-11.055c-0.203-2.131-0.503-2.938,0.513-3.242
		c1.01-0.305,3.243-4.061,3.852-5.279c0.609-1.213,1.417-5.775,8.923-5.982c7.507-0.203,11.562,0.107,15.719,0.107
		s12.069-0.408,14.303-0.51c2.229-0.1,5.166,0,7.705,4.666c0.478,0.873,3.242,5.881,4.562,6.592
		c1.318,0.711,0.506,4.461-0.504,5.781c-1.014,1.314-4.161,6.893-4.766,7.709c-0.613,0.807-1.015,2.533-1.629,2.127
		c-0.604-0.406-3.547-2.436-4.766-5.172c-1.213-2.74-2.35-5.516-4.785-3.789C47.29,24.107,45.969,24.388,45.718,24.517z"/>
	
		<line style="fill:none;stroke:#5F5E5E;stroke-width:0.6239;stroke-linecap:round;stroke-miterlimit:10;" x1="38.875" y1="62.671" x2="42.424" y2="62.671"/>
	
		<line style="fill:none;stroke:#9D9D9C;stroke-width:0.6239;stroke-linecap:round;stroke-miterlimit:10;" x1="4.204" y1="29.578" x2="11.017" y2="27.306"/>
	
		<line style="fill:none;stroke:#9D9D9C;stroke-width:0.6239;stroke-linecap:round;stroke-miterlimit:10;" x1="75.885" y1="30.781" x2="65.461" y2="27.306"/>
	<circle style="fill:#FFFFFF;stroke:#000000;stroke-width:0.624;stroke-miterlimit:10;" cx="41.079" cy="40.748" r="1.551"/>
	<circle style="fill:#FFFFFF;stroke:#000000;stroke-width:0.624;stroke-miterlimit:10;" cx="40.723" cy="56.021" r="1.551"/>
	
		<ellipse transform="matrix(0.9518 -0.3066 0.3066 0.9518 -6.7941 11.2348)" style="fill:#FFFFFF;stroke:#000000;stroke-width:0.624;stroke-miterlimit:10;" cx="32.366" cy="27.245" rx="1.156" ry="1.474"/>
</g>
<rect y="0" style="fill:none;" width="80" height="80"/>
<g>
</g>
<g>
</g>
<g>
</g>
<g>
</g>
<g>
</g>
<g>
</g>
<g>
</g>
<g>
</g>
<g>
</g>
<g>
</g>
<g>
</g>
<g>
</g>
<g>
</g>
<g>
</g>
<g>
</g>
</svg>
