<?xml version="1.0" encoding="windows-1252"?>
<!-- Generator: Adobe Illustrator 16.0.4, SVG Export Plug-In . SVG Version: 6.00 Build 0)  -->
<!DOCTYPE svg PUBLIC "-//W3C//DTD SVG 1.1//EN" "http://www.w3.org/Graphics/SVG/1.1/DTD/svg11.dtd">
<svg version="1.1" id="Layer_1" xmlns="http://www.w3.org/2000/svg" xmlns:xlink="http://www.w3.org/1999/xlink" x="0px" y="0px" width="80px" height="80px" viewBox="0 0 80 80" style="enable-background:new 0 0 80 80;" xml:space="preserve">
<g>
	<path style="opacity:0.35;" d="M66.701,31.068c-0.142-0.322-6.142-13.891-6.142-13.891c-0.065-0.027-0.13-0.039-0.194-0.057   c0.109-0.119,0.127-0.193,0.014-0.277c-0.19-0.143-1.476-1.666-6.57-3.334c-1.16-0.379-3.852-1.604-4.991-2.164   c0.188-0.574,0.245-1.307-0.091-1.488c-0.467-0.252-1.447-2.027-1.617-2.338c-0.9-1.652-1.941-1.689-2.731-1.652   c-0.792,0.035-3.597,0.178-5.07,0.178s-2.911-0.107-5.572-0.037c-2.661,0.074-2.947,1.691-3.164,2.123   C30.355,8.562,29.564,9.892,29.206,10c-0.36,0.109-0.254,0.395-0.182,1.15c0.005,0.053,0.021,0.117,0.042,0.191   c-0.569,0.309-2.962,1.59-4.588,2.217c-1.772,0.682-6.923,2.891-6.886,3.947c-0.746,1.686-5.918,13.383-6.049,13.682   c-0.511,1.17,2.449,8.576,7.604,8.994c0.427,0.033,1.958-2.99,3.168-5.686c0.181,6.365,0.387,27.707-1.277,38.045   c-0.121,0.752-0.615,1.521-0.227,1.752c1.048,0.619,12.999,1.494,15.617,1.592c2.619,0.094,9.618-0.43,12.808-0.715   c3.19-0.285,8.396-0.752,8.856-0.906c0.726-0.242,0.061-1.301,0.014-1.777c-0.031-0.293-1.92-20.914-1.656-36.967   c1.094,2.34,2.278,4.572,2.646,4.543C64.251,39.644,67.212,32.238,66.701,31.068z"/>
	<path style="fill:#FFFFFF;stroke:#000000;stroke-width:0.624;stroke-miterlimit:10;" d="M19.439,15.542c0,0-6,13.568-6.141,13.891   c-0.512,1.17,2.449,8.574,7.604,8.992c0.733,0.059,4.711-8.871,4.752-9.725C25.798,25.75,22.868,14.16,19.439,15.542z"/>
	<path style="fill:none;stroke:#9D9D9C;stroke-width:0.6239;stroke-linecap:round;stroke-miterlimit:10;" d="M20.631,36.962   c0,0-4.533-1.314-6.288-7.748"/>
	<path style="fill:#FFFFFF;stroke:#000000;stroke-width:0.624;stroke-miterlimit:10;" d="M62.314,15.423c0,0,6,13.568,6.141,13.891   c0.512,1.17-2.448,8.574-7.604,8.992c-0.732,0.059-4.711-8.871-4.752-9.725C55.956,25.63,58.886,14.041,62.314,15.423z"/>
	<path style="fill:#FFFFFF;stroke:#000000;stroke-width:0.624;stroke-miterlimit:10;" d="M30.947,9.517c0,0-2.856,1.572-4.713,2.287   c-1.857,0.713-7.445,3.111-6.857,4.094c2.777,4.643,3.947,9.395,4.619,15.045c0.146,1.227,0.721,27.893-1.202,39.844   c-0.121,0.752-0.615,1.521-0.227,1.75c1.048,0.619,12.999,1.496,15.617,1.592c2.618,0.096,9.618-0.43,12.808-0.715   c3.19-0.285,8.396-0.75,8.856-0.904c0.726-0.242,0.06-1.303,0.013-1.779c-0.031-0.309-2.143-23.33-1.59-39.662   c0.293-8.689,3.332-15.229,3.481-15.359c0.429-0.383,0.571-0.477,0.38-0.621c-0.189-0.143-1.475-1.666-6.57-3.332   c-1.207-0.395-4.094-1.715-5.141-2.238c-1.049-0.523-1.763-3.285-6.143-3.379C39.898,6.042,34.089,5.47,33.232,7.375   C32.376,9.279,31.423,9.232,30.947,9.517z"/>
	<path style="fill:#FFFFFF;" d="M35.191,10.359c0,0-4.419-5.146,0.365-5.449c4.782-0.305,12.715-1.395,12.352,1.453   c-0.363,2.844-3.814,3.754-4.783,6.66c-0.97,2.906-2.786,3.512-3.512,1.574C38.886,12.66,38.705,10.296,35.191,10.359z"/>
	<path style="fill:#FFFFFF;stroke:#000000;stroke-width:0.624;stroke-miterlimit:10;" d="M37.066,10.445   c0,0,0.647,0.863,0.576,1.654c-0.072,0.791,0.144,2.014,0.646,2.516c0.504,0.504,2.157,3.596,2.302,4.891   c0.144,1.295,1.007-4.529,1.007-4.529s-0.72-0.936-1.079-1.439c-0.358-0.502-0.72-0.934-0.934-1.58   c-0.217-0.648-0.289-1.223-1.152-1.367C37.57,10.445,37.066,10.445,37.066,10.445z"/>
	<path style="fill:#FFFFFF;stroke:#000000;stroke-width:0.624;stroke-miterlimit:10;" d="M43.826,10.876c0,0-1.008,0.432-1.224,1.08   c-0.216,0.646-0.79,2.301-1.294,3.02s-1.078,2.229-1.008,3.09c0.072,0.865,0,5.18,0,5.18h3.021c0,0-0.216-5.969,0.145-6.832   c0.359-0.861,0.83-2.525,0.759-3.422c-0.108-1.357,0.503-2.445,0.503-2.445L43.826,10.876z"/>
	<path style="fill:#FFFFFF;stroke:#000000;stroke-width:0.624;stroke-linejoin:round;stroke-miterlimit:10;" d="M43.23,11.216   c0,0,2.11-1.137,2.793-2.467c0.684-1.33,2.664-3.523-0.754-3.523c-1.582,0-2.445,0.215-4.135,0.215   c-1.582,0-4.781-0.037-5.717-0.07c-0.934-0.037-2.731,0.789,0.791,4.42c0.336,0.348,0.754,0.611,0.754,0.611s-0.79-0.791-1.509,0   c-0.718,0.793-1.869,3.129-2.587,2.912c0,0-2.015-3.164-2.087-3.918c-0.072-0.756-0.178-1.041,0.182-1.15   c0.358-0.107,1.15-1.439,1.366-1.871c0.216-0.43,0.502-2.047,3.163-2.121c2.661-0.072,4.098,0.037,5.573,0.037   c1.473,0,4.278-0.145,5.07-0.18c0.789-0.035,1.832,0,2.73,1.652c0.17,0.312,1.15,2.088,1.618,2.338   c0.468,0.254,0.181,1.582-0.179,2.049c-0.359,0.469-1.475,2.445-1.689,2.734c-0.217,0.285-0.359,0.896-0.577,0.754   c-0.214-0.143-1.258-0.863-1.689-1.834c-0.431-0.971-0.833-1.955-1.696-1.344S43.318,11.171,43.23,11.216z"/>
	
		<line style="fill:none;stroke:#9D9D9C;stroke-width:0.6239;stroke-linecap:round;stroke-miterlimit:10;" x1="41.054" y1="21.943" x2="42.563" y2="21.943"/>
	<path style="fill:none;stroke:#9D9D9C;stroke-width:0.6239;stroke-linecap:round;stroke-miterlimit:10;" d="M23.932,70.681   c0,0,10.543,1.83,16.027,1.83c5.482,0,18.619-1.83,18.619-1.83"/>
	<path style="fill:none;stroke:#9D9D9C;stroke-width:0.6239;stroke-linecap:round;stroke-miterlimit:10;" d="M61.123,36.843   c0,0,4.533-1.314,6.287-7.748"/>
	
		<line style="fill:none;stroke:#9D9D9C;stroke-width:0.6239;stroke-linecap:round;stroke-miterlimit:10;" x1="20.838" y1="15.57" x2="30.928" y2="12.207"/>
	
		<line style="fill:none;stroke:#9D9D9C;stroke-width:0.6239;stroke-linecap:round;stroke-miterlimit:10;" x1="60.318" y1="15.57" x2="50.228" y2="12.207"/>
	<path style="fill:#808080;stroke:#000000;stroke-width:0.624;stroke-linejoin:round;stroke-miterlimit:10;" d="M55.326,31.033   l-4.635,1.613l-4.598-1.867l0.256-9.232c0,0,2.557,0.42,4.57,0.477c2.015,0.055,4.661-0.221,4.661-0.221L55.326,31.033z"/>
	<path style="fill:none;stroke:#5F5E5E;stroke-width:0.6239;stroke-linecap:round;stroke-miterlimit:10;" d="M47.304,23.464   c0,0,3.947,0.877,6.908,0.33"/>
</g>
<rect y="0" style="fill:none;" width="80" height="80"/>
<g>
</g>
<g>
</g>
<g>
</g>
<g>
</g>
<g>
</g>
<g>
</g>
<g>
</g>
<g>
</g>
<g>
</g>
<g>
</g>
<g>
</g>
<g>
</g>
<g>
</g>
<g>
</g>
<g>
</g>
</svg>