<?xml version="1.0" encoding="windows-1252"?>
<!-- Generator: Adobe Illustrator 16.0.4, SVG Export Plug-In . SVG Version: 6.00 Build 0)  -->
<!DOCTYPE svg PUBLIC "-//W3C//DTD SVG 1.1//EN" "http://www.w3.org/Graphics/SVG/1.1/DTD/svg11.dtd">
<svg version="1.1" id="Layer_1" xmlns="http://www.w3.org/2000/svg" xmlns:xlink="http://www.w3.org/1999/xlink" x="0px" y="0px" width="80px" height="80px" viewBox="0 0 80 80" style="enable-background:new 0 0 80 80;" xml:space="preserve">
<rect y="0" style="fill:none;" width="80" height="80"/>
<g>
	<path style="opacity:0.35;" d="M66.701,31.069c-0.141-0.323-6.141-13.892-6.141-13.892c-0.065-0.026-0.13-0.039-0.194-0.056   c0.109-0.119,0.126-0.194,0.014-0.278c-0.19-0.143-1.476-1.667-6.571-3.333c-1.159-0.379-3.851-1.604-4.99-2.165   c0.188-0.574,0.245-1.308-0.091-1.489c-0.468-0.251-1.448-2.026-1.617-2.337c-0.9-1.652-1.941-1.688-2.731-1.652   c-0.792,0.035-3.597,0.179-5.071,0.179s-2.912-0.109-5.573-0.037c-2.66,0.074-2.947,1.691-3.163,2.121   C30.355,8.562,29.564,9.893,29.206,10c-0.36,0.109-0.254,0.395-0.182,1.15c0.005,0.052,0.021,0.117,0.043,0.19   c-0.569,0.309-2.962,1.592-4.588,2.218c-1.772,0.681-6.924,2.891-6.887,3.947c-0.745,1.686-5.918,13.383-6.049,13.683   c-0.512,1.169,2.448,8.574,7.604,8.992c0.427,0.035,1.959-2.988,3.169-5.684c0.181,6.364,0.387,27.706-1.277,38.045   c-0.12,0.752-0.615,1.521-0.227,1.75c1.048,0.619,12.999,1.496,15.617,1.592c2.619,0.096,9.619-0.428,12.808-0.715   c3.19-0.285,8.396-0.75,8.856-0.904c0.726-0.242,0.06-1.303,0.013-1.777c-0.03-0.295-1.919-20.914-1.655-36.968   c1.094,2.34,2.278,4.572,2.646,4.542C64.252,39.643,67.212,32.239,66.701,31.069z"/>
	<path style="fill:#808080;stroke:#000000;stroke-width:0.624;stroke-miterlimit:10;" d="M19.439,15.542c0,0-6,13.568-6.141,13.892   c-0.512,1.169,2.448,8.575,7.604,8.993c0.732,0.059,4.711-8.872,4.752-9.725C25.798,25.75,22.867,14.161,19.439,15.542z"/>
	<path style="fill:none;stroke:#5F5E5E;stroke-width:0.6239;stroke-linecap:round;stroke-miterlimit:10;" d="M20.632,36.963   c0,0-4.533-1.315-6.288-7.749"/>
	<path style="fill:#808080;stroke:#000000;stroke-width:0.624;stroke-miterlimit:10;" d="M62.314,15.423c0,0,6,13.568,6.142,13.892   c0.511,1.169-2.448,8.575-7.604,8.993c-0.732,0.059-4.712-8.872-4.753-9.724C55.957,25.63,58.886,14.042,62.314,15.423z"/>
	<path style="fill:#FFFFFF;stroke:#000000;stroke-width:0.624;stroke-miterlimit:10;" d="M30.947,9.518c0,0-2.856,1.571-4.714,2.286   c-1.857,0.714-7.444,3.112-6.856,4.095c2.777,4.643,3.947,9.395,4.619,15.045c0.146,1.226,0.721,27.893-1.202,39.842   c-0.121,0.752-0.615,1.521-0.227,1.752c1.048,0.619,12.998,1.496,15.616,1.592c2.619,0.096,9.619-0.43,12.809-0.715   s8.396-0.75,8.856-0.904c0.726-0.244,0.06-1.303,0.013-1.779c-0.032-0.311-2.143-23.33-1.591-39.662   c0.294-8.69,3.333-15.229,3.482-15.361c0.429-0.381,0.571-0.476,0.38-0.619c-0.189-0.143-1.475-1.667-6.57-3.333   c-1.207-0.395-4.095-1.714-5.142-2.238c-1.048-0.523-1.762-3.285-6.142-3.38c-4.381-0.096-10.19-0.667-11.047,1.237   C32.376,9.28,31.423,9.233,30.947,9.518z"/>
	<path style="fill:#FFFFFF;" d="M35.191,10.358c0,0-4.419-5.146,0.365-5.449c4.782-0.303,12.714-1.393,12.351,1.453   c-0.363,2.845-3.814,3.754-4.782,6.66c-0.97,2.906-2.787,3.512-3.513,1.574C38.886,12.66,38.704,10.298,35.191,10.358z"/>
	<path style="fill:#FFFFFF;stroke:#000000;stroke-width:0.624;stroke-miterlimit:10;" d="M37.066,10.446   c0,0,0.647,0.863,0.575,1.654c-0.072,0.791,0.144,2.013,0.646,2.516c0.503,0.504,2.157,3.596,2.301,4.89   c0.144,1.294,1.008-4.53,1.008-4.53s-0.72-0.935-1.081-1.438c-0.357-0.503-0.72-0.935-0.934-1.582   c-0.216-0.648-0.288-1.223-1.151-1.367C37.569,10.446,37.066,10.446,37.066,10.446z"/>
	<path style="fill:#FFFFFF;stroke:#000000;stroke-width:0.624;stroke-miterlimit:10;" d="M43.827,10.876   c0,0-1.008,0.433-1.224,1.081c-0.216,0.646-0.79,2.3-1.294,3.019c-0.504,0.72-1.079,2.229-1.008,3.091c0.072,0.864,0,5.178,0,5.178   h3.022c0,0-0.216-5.967,0.144-6.831c0.36-0.862,0.831-2.525,0.759-3.423c-0.107-1.356,0.504-2.445,0.504-2.445L43.827,10.876z"/>
	<path style="fill:#FFFFFF;stroke:#000000;stroke-width:0.624;stroke-linejoin:round;stroke-miterlimit:10;" d="M43.23,11.217   c0,0,2.111-1.137,2.793-2.467c0.684-1.331,2.665-3.524-0.754-3.524c-1.581,0-2.445,0.216-4.135,0.216   c-1.582,0-4.781-0.037-5.716-0.071c-0.935-0.037-2.731,0.79,0.791,4.421c0.336,0.348,0.754,0.611,0.754,0.611s-0.79-0.791-1.51,0   c-0.718,0.792-1.869,3.128-2.587,2.913c0,0-2.016-3.164-2.087-3.92c-0.072-0.755-0.179-1.041,0.182-1.15   c0.357-0.108,1.149-1.438,1.365-1.87c0.216-0.43,0.502-2.048,3.163-2.122c2.661-0.072,4.099,0.037,5.573,0.037   c1.474,0,4.279-0.144,5.07-0.179c0.79-0.036,1.832,0,2.731,1.653c0.17,0.311,1.15,2.086,1.618,2.337   c0.468,0.253,0.18,1.583-0.179,2.05c-0.359,0.467-1.476,2.444-1.689,2.733c-0.218,0.286-0.359,0.898-0.577,0.754   c-0.214-0.143-1.258-0.863-1.689-1.833c-0.431-0.971-0.833-1.954-1.696-1.343C43.787,11.072,43.319,11.171,43.23,11.217z"/>
	
		<line style="fill:none;stroke:#9D9D9C;stroke-width:0.6239;stroke-linecap:round;stroke-miterlimit:10;" x1="41.055" y1="21.944" x2="42.563" y2="21.944"/>
	<path style="fill:none;stroke:#9D9D9C;stroke-width:0.6239;stroke-linecap:round;stroke-miterlimit:10;" d="M23.932,70.68   c0,0,10.544,1.832,16.026,1.832c5.484,0,18.621-1.832,18.621-1.832"/>
	<path style="fill:none;stroke:#5F5E5E;stroke-width:0.6239;stroke-linecap:round;stroke-miterlimit:10;" d="M61.123,36.844   c0,0,4.533-1.315,6.287-7.749"/>
	
		<line style="fill:none;stroke:#9D9D9C;stroke-width:0.6239;stroke-linecap:round;stroke-miterlimit:10;" x1="20.839" y1="15.569" x2="30.928" y2="12.207"/>
	
		<line style="fill:none;stroke:#9D9D9C;stroke-width:0.6239;stroke-linecap:round;stroke-miterlimit:10;" x1="60.319" y1="15.569" x2="50.229" y2="12.207"/>
</g>
<g>
</g>
<g>
</g>
<g>
</g>
<g>
</g>
<g>
</g>
<g>
</g>
<g>
</g>
<g>
</g>
<g>
</g>
<g>
</g>
<g>
</g>
<g>
</g>
<g>
</g>
<g>
</g>
<g>
</g>
</svg>